<?xml version="1.0" standalone="no"?>
<!DOCTYPE svg PUBLIC "-//W3C//DTD SVG 20010904//EN"
 "http://www.w3.org/TR/2001/REC-SVG-20010904/DTD/svg10.dtd">
<svg version="1.0" xmlns="http://www.w3.org/2000/svg"
 width="150.000000pt" height="150.000000pt" viewBox="0 0 150.000000 150.000000"
 preserveAspectRatio="xMidYMid meet">
<metadata>
Created by potrace 1.11, written by Peter Selinger 2001-2013
</metadata>
<g transform="translate(0.000000,150.000000) scale(0.100000,-0.100000)"
fill="#000000" stroke="none">
<path d="M673 1209 c-46 -23 -67 -48 -80 -100 -14 -51 -7 -68 25 -64 15 2 30
4 35 4 4 1 7 10 7 22 0 11 5 29 10 40 13 24 67 52 75 39 3 -5 12 -7 19 -4 34
13 73 -85 45 -113 -9 -9 -6 -20 11 -43 20 -28 24 -30 37 -17 26 26 41 86 31
129 -23 103 -123 153 -215 107z"/>
<path d="M507 1093 c-11 -10 -8 -48 4 -60 6 -6 19 -8 30 -6 24 7 37 52 18 64
-17 10 -43 12 -52 2z"/>
<path d="M924 1086 c-3 -8 -4 -23 -2 -33 5 -25 61 -25 66 0 7 37 -51 67 -64
33z"/>
<path d="M691 975 c-28 -48 -51 -91 -51 -96 0 -11 197 -12 203 -1 3 4 -19 47
-48 95 l-53 89 -51 -87z"/>
<path d="M567 1006 c-107 -54 -118 -195 -20 -263 40 -28 129 -30 163 -4 l25
20 -23 24 c-21 22 -27 23 -52 14 -23 -9 -36 -8 -64 6 -42 19 -54 54 -36 98 14
34 37 49 73 49 31 0 67 48 46 61 -32 20 -66 18 -112 -5z"/>
<path d="M897 988 c-13 -31 -12 -34 12 -52 14 -11 28 -21 30 -23 12 -9 1 -76
-14 -93 -33 -36 -112 -27 -128 15 -9 21 -77 21 -77 0 0 -21 29 -66 55 -85 110
-82 266 19 240 156 -7 38 -70 114 -94 114 -6 0 -17 -15 -24 -32z"/>
<path d="M717 733 c-14 -13 -7 -53 11 -62 20 -11 52 8 52 31 0 28 -44 51 -63
31z"/>
<path d="M729 572 c-1 -9 -1 -29 -1 -44 1 -34 -4 -35 -27 -6 -33 40 -103 -9
-84 -58 4 -12 2 -15 -8 -12 -22 7 -23 38 -2 53 17 13 17 15 2 27 -9 7 -19 19
-21 27 -3 11 -8 10 -22 -4 -10 -10 -28 -19 -40 -20 -17 -1 -21 -9 -23 -36 -2
-50 6 -79 22 -79 11 0 15 12 15 45 0 25 5 45 10 45 6 0 10 -6 9 -12 -5 -42 3
-67 22 -73 13 -4 25 -2 29 5 6 9 13 9 28 1 30 -16 72 -14 72 4 0 9 -9 15 -25
15 -14 0 -25 4 -25 9 0 4 11 7 25 6 15 -2 29 3 35 13 9 15 10 15 8 -3 -3 -39
2 -55 17 -55 12 0 15 15 15 79 0 61 -3 80 -15 85 -10 3 -15 -1 -16 -12z m-54
-72 c-3 -5 -11 -10 -16 -10 -6 0 -7 5 -4 10 3 6 11 10 16 10 6 0 7 -4 4 -10z"/>
<path d="M504 569 c-3 -6 0 -15 7 -20 13 -7 28 5 29 24 0 11 -28 8 -36 -4z"/>
<path d="M777 573 c-3 -7 -1 -120 2 -144 1 -4 20 -6 43 -5 32 1 45 6 53 22
l10 21 18 -23 c12 -16 24 -21 43 -18 16 3 23 1 19 -6 -3 -5 -19 -10 -36 -10
-32 0 -38 -14 -12 -28 24 -14 72 6 79 32 3 12 4 44 2 70 -3 47 -4 49 -37 51
-24 2 -40 -3 -56 -19 l-22 -22 -9 20 c-6 15 -17 20 -37 19 -22 -1 -27 2 -27
23 0 22 -23 34 -33 17z m71 -90 c4 -24 -26 -40 -34 -18 -8 21 3 47 19 43 6 -3
13 -14 15 -25z m112 -18 c-7 -8 -16 -12 -21 -9 -13 8 -11 42 4 47 18 6 31 -22
17 -38z"/>
<path d="M90 520 c-27 -27 -25 -56 6 -85 22 -20 30 -23 48 -13 28 15 36 28 36
59 0 29 -27 59 -53 59 -9 0 -26 -9 -37 -20z m55 -40 c0 -36 -29 -33 -33 3 -3
23 0 28 15 25 12 -2 18 -12 18 -28z"/>
<path d="M207 522 c-21 -23 -22 -66 -1 -86 18 -19 61 -21 66 -5 3 9 9 9 25 0
31 -16 73 -14 73 4 0 10 -10 15 -27 15 -14 0 -23 3 -20 7 10 9 67 14 66 5 -4
-24 3 -42 16 -42 11 0 15 11 15 40 0 29 4 40 15 40 8 0 15 -6 16 -12 1 -7 2
-24 2 -38 3 -43 32 -31 35 15 3 53 -8 67 -57 70 -37 2 -41 0 -41 -21 l0 -23
-25 25 c-19 19 -31 23 -48 18 -32 -9 -37 -17 -40 -52 -2 -33 -22 -43 -44 -21
-14 14 -4 52 13 45 7 -3 18 2 24 10 7 8 11 14 9 15 -41 9 -58 7 -72 -9z m133
-22 c0 -5 -7 -10 -16 -10 -8 0 -12 5 -9 10 3 6 10 10 16 10 5 0 9 -4 9 -10z"/>
<path d="M1070 520 c-11 -11 -20 -29 -20 -40 0 -28 37 -62 62 -58 30 4 34 26
6 30 -33 4 -33 50 0 55 17 2 23 -1 21 -14 -3 -30 0 -41 17 -57 23 -24 52 -19
80 12 16 16 25 21 24 12 -4 -28 0 -40 15 -40 11 0 15 11 15 40 0 54 27 56 32
3 4 -51 32 -53 35 -3 2 53 2 53 17 41 7 -6 12 -21 12 -34 -2 -23 11 -47 25
-47 5 0 9 22 9 50 0 56 -23 80 -59 61 -10 -6 -21 -7 -25 -3 -4 3 -23 7 -42 8
-31 1 -39 -6 -35 -28 2 -13 -8 -9 -29 12 -22 22 -50 26 -67 9 -8 -8 -17 -8
-31 0 -29 15 -39 14 -62 -9z m140 -40 c0 -32 -26 -43 -36 -15 -9 21 3 45 21
45 10 0 15 -10 15 -30z"/>
<path d="M1013 454 c-7 -19 11 -39 26 -30 16 10 13 33 -4 40 -9 3 -18 -1 -22
-10z"/>
<path d="M1159 282 c-3 -24 -1 -46 3 -48 4 -3 8 5 8 18 l1 23 19 -24 c13 -15
20 -18 20 -9 0 8 -6 20 -12 27 -11 10 -9 15 6 27 11 8 15 14 9 14 -6 0 -17 -7
-24 -16 -12 -15 -14 -14 -20 7 -4 19 -7 15 -10 -19z"/>
<path d="M194 270 c0 -36 3 -40 26 -39 l25 0 -23 10 c-25 10 -21 28 6 30 10 1
7 4 -8 9 l-25 7 25 11 25 11 -26 0 c-23 1 -25 -2 -25 -39z"/>
<path d="M260 310 c-7 -21 -6 -58 1 -70 6 -11 9 -9 9 10 l1 25 19 -24 c13 -15
20 -18 20 -9 0 8 -5 19 -12 26 -8 8 -8 15 2 27 7 8 8 15 2 15 -5 0 -13 -8 -17
-17 -7 -17 -8 -16 -15 2 -5 11 -9 18 -10 15z"/>
<path d="M328 284 c-11 -22 -10 -28 7 -40 10 -8 26 -14 34 -14 10 0 7 5 -8 13
-13 6 -23 15 -22 20 0 4 1 13 1 21 0 8 10 17 23 19 l22 4 -23 2 c-15 1 -26 -7
-34 -25z"/>
<path d="M390 300 c0 -6 10 -8 25 -4 23 6 25 4 25 -31 0 -20 3 -34 8 -32 4 3
7 20 6 39 -1 30 -4 33 -32 36 -18 2 -32 -1 -32 -8z"/>
<path d="M473 270 c0 -37 2 -40 26 -39 22 1 23 2 6 7 -28 10 -30 32 -2 33 16
1 18 2 5 6 -10 2 -18 11 -18 19 0 8 -4 14 -8 14 -5 0 -9 -18 -9 -40z"/>
<path d="M533 295 c0 -8 4 -15 9 -15 4 0 8 5 8 10 0 6 5 10 10 10 6 0 10 -7
10 -15 0 -8 -9 -15 -20 -15 -13 0 -20 -7 -20 -20 0 -11 5 -20 11 -20 6 0 9 7
5 15 -3 8 0 15 7 15 22 0 38 16 31 33 -8 21 -51 23 -51 2z"/>
<path d="M618 269 c5 -46 9 -47 13 -4 2 17 8 33 14 37 5 4 1 8 -10 8 -18 0
-20 -5 -17 -41z"/>
<path d="M666 273 c3 -51 4 -52 15 -25 9 23 34 26 34 4 0 -5 3 -14 8 -18 4 -4
6 13 6 37 -1 24 -3 36 -6 27 -5 -22 -43 -24 -43 -3 0 8 -4 15 -8 15 -4 0 -7
-17 -6 -37z"/>
<path d="M751 271 c-1 -28 3 -41 8 -36 6 6 6 25 1 45 l-8 35 -1 -44z"/>
<path d="M782 290 c-17 -27 -15 -35 5 -19 15 13 16 11 11 -13 -3 -16 -1 -28 3
-28 5 0 9 18 9 40 0 44 -9 50 -28 20z"/>
<path d="M854 285 c-12 -48 32 -73 60 -34 11 17 12 25 3 40 -18 28 -55 24 -63
-6z m50 0 c7 -20 -3 -45 -19 -45 -16 0 -26 25 -19 45 4 8 12 15 19 15 7 0 15
-7 19 -15z"/>
<path d="M940 293 c-7 -54 -5 -58 23 -61 15 -2 27 -9 27 -15 0 -7 4 -6 10 3 5
9 22 14 42 13 20 -1 24 1 11 4 -29 6 -33 59 -5 66 13 4 11 5 -5 6 -23 1 -24
-1 -27 -41 -1 -18 -8 -24 -33 -26 -30 -3 -32 -1 -36 35 -2 22 -5 29 -7 16z"/>
<path d="M982 280 c1 -16 6 -30 10 -30 4 0 6 13 5 30 -1 16 -5 30 -10 30 -4 0
-6 -13 -5 -30z"/>
<path d="M1078 294 c-2 -10 -2 -30 2 -44 l6 -25 6 23 c4 13 3 33 -1 45 -7 20
-8 20 -13 1z"/>
<path d="M1130 298 c0 -10 -4 -18 -10 -18 -5 0 -10 -5 -10 -11 0 -5 5 -7 10
-4 6 3 10 -4 11 -17 1 -20 2 -19 9 6 6 17 5 36 0 45 -8 14 -9 14 -10 -1z"/>
<path d="M1231 273 c-1 -49 14 -56 31 -15 l11 27 7 -30 c7 -27 8 -25 8 15 l1
45 -18 -22 c-11 -13 -22 -23 -24 -23 -3 0 -8 10 -10 23 -2 12 -5 3 -6 -20z"/>
<path d="M392 255 c1 -14 5 -25 9 -25 4 0 7 11 7 25 0 14 -4 25 -9 25 -5 0 -8
-11 -7 -25z"/>
</g>
</svg>
